<svg width="24" height="24" viewBox="0 0 24 24" fill="none" xmlns="http://www.w3.org/2000/svg">
<g clip-path="url(#clip0_3487_12158)">
<path fill-rule="evenodd" clip-rule="evenodd" d="M13.542 5.69237L11.0189 8.21547C10.7092 8.52512 10.2071 8.52512 9.89749 8.21547C9.58783 7.90581 9.58783 7.40375 9.89749 7.09409L12.4206 4.571C14.1237 2.86788 16.885 2.86788 18.5881 4.571L19.0086 4.99152C20.944 6.92688 20.944 10.0647 19.0086 12.0001L16.9061 14.1027C16.5964 14.4123 16.0944 14.4123 15.7847 14.1027C15.475 13.793 15.475 13.291 15.7847 12.9813L17.8873 10.8787C19.2033 9.56268 19.2033 7.42894 17.8873 6.11289L17.4668 5.69237C16.383 4.60857 14.6258 4.60857 13.542 5.69237ZM6.11285 13.1215C4.7968 14.4375 4.7968 16.5713 6.11285 17.8873L6.53337 18.3078C7.61717 19.3916 9.37437 19.3916 10.4582 18.3078L12.9813 15.7847C13.2909 15.4751 13.793 15.4751 14.1026 15.7847C14.4123 16.0944 14.4123 16.5965 14.1026 16.9061L11.5795 19.4292C9.87642 21.1323 7.11511 21.1323 5.41199 19.4292L4.99148 19.0087C3.05611 17.0733 3.05611 13.9355 4.99148 12.0001L7.09405 9.89753C7.40371 9.58787 7.90577 9.58787 8.21543 9.89753C8.52508 10.2072 8.52508 10.7092 8.21543 11.0189L6.11285 13.1215ZM8.3556 15.6446C8.04594 15.3349 8.04594 14.8329 8.3556 14.5232L14.5232 8.35564C14.8328 8.04598 15.3349 8.04598 15.6445 8.35564C15.9542 8.6653 15.9542 9.16735 15.6445 9.47701L9.47697 15.6446C9.16731 15.9542 8.66526 15.9542 8.3556 15.6446Z" fill="white"/>
</g>
<defs>
<clipPath id="clip0_3487_12158">
<rect width="20" height="20" fill="white" transform="translate(2 2)"/>
</clipPath>
</defs>
</svg>
