<svg width="109" height="30" viewBox="0 0 109 30" fill="none" xmlns="http://www.w3.org/2000/svg">
<g clip-path="url(#clip0_3499_8067)">
<path d="M41.285 0.62085L31.9557 25.0626H36.9668L38.8846 19.9557H48.7831L50.7092 25.0626H55.6832L46.4116 0.62085H41.285ZM40.6045 15.4696L43.8628 6.86991L47.1087 15.4696H40.6045Z" fill="black"/>
<path d="M61.6718 18.7597L57.6258 7.89209H52.8456L59.3622 25.0625H64.1011L70.5021 7.89209H65.722L61.6718 18.7597Z" fill="black"/>
<path d="M76.5155 7.89209H71.9663V25.0625H76.5155V7.89209Z" fill="black"/>
<path d="M74.2388 6.65463C76.0702 6.65463 77.5548 5.16494 77.5548 3.32732C77.5548 1.48969 76.0702 0 74.2388 0C72.4074 0 70.9228 1.48969 70.9228 3.32732C70.9228 5.16494 72.4074 6.65463 74.2388 6.65463Z" fill="black"/>
<path d="M85.5315 3.31079H80.9946V7.86309H78.3344V12.0015H80.9946V19.2976C80.9946 23.4361 83.2672 25.2156 86.4677 25.2156C87.5478 25.2299 88.6192 25.02 89.6146 24.599V20.3447C89.0713 20.5443 88.498 20.6493 87.9195 20.655C86.5296 20.655 85.5273 20.1129 85.5273 18.2547V12.0015H89.6146V7.90447H85.5315V3.31079Z" fill="black"/>
<path d="M99.1789 7.58179C97.4248 7.58097 95.7098 8.10222 94.2509 9.07959C92.792 10.057 91.6548 11.4466 90.9832 13.0726C90.3115 14.6986 90.1355 16.4879 90.4776 18.2143C90.8196 19.9407 91.6642 21.5265 92.9046 22.7711C94.145 24.0157 95.7254 24.8632 97.4459 25.2064C99.1664 25.5496 100.95 25.373 102.57 24.6991C104.191 24.0251 105.575 22.884 106.549 21.4202C107.524 19.9563 108.043 18.2355 108.042 16.4753C108.041 14.1169 107.107 11.8555 105.445 10.1879C103.783 8.52023 101.529 7.58288 99.1789 7.58179V7.58179ZM99.1789 20.8248C98.3247 20.8257 97.4894 20.5722 96.7787 20.0966C96.068 19.621 95.5139 18.9446 95.1865 18.1529C94.859 17.3612 94.7729 16.4899 94.939 15.6491C95.1052 14.8083 95.5161 14.0359 96.1199 13.4295C96.7236 12.8231 97.4931 12.41 98.3308 12.2425C99.1686 12.075 100.037 12.1605 100.826 12.4884C101.616 12.8162 102.29 13.3715 102.765 14.0842C103.24 14.7968 103.493 15.6347 103.493 16.4919C103.491 17.6381 103.035 18.7366 102.226 19.546C101.417 20.3554 100.321 20.8094 99.1789 20.8083V20.8248Z" fill="black"/>
<path d="M8.86742 27.4999C13.7648 27.4999 17.7348 23.5163 17.7348 18.6023C17.7348 13.6882 13.7648 9.70459 8.86742 9.70459C3.97008 9.70459 0 13.6882 0 18.6023C0 23.5163 3.97008 27.4999 8.86742 27.4999Z" fill="#04E061"/>
<path d="M24.2472 26.3784C27.2061 26.3784 29.6048 23.9716 29.6048 21.0026C29.6048 18.0336 27.2061 15.6267 24.2472 15.6267C21.2883 15.6267 18.8896 18.0336 18.8896 21.0026C18.8896 23.9716 21.2883 26.3784 24.2472 26.3784Z" fill="#FF4053"/>
<path d="M10.5626 8.55014C12.394 8.55014 13.8786 7.06045 13.8786 5.22282C13.8786 3.3852 12.394 1.89551 10.5626 1.89551C8.73121 1.89551 7.24658 3.3852 7.24658 5.22282C7.24658 7.06045 8.73121 8.55014 10.5626 8.55014Z" fill="#965EEB"/>
<path d="M22.1644 14.468C26.1461 14.468 29.3738 11.2293 29.3738 7.23402C29.3738 3.23878 26.1461 0 22.1644 0C18.1828 0 14.955 3.23878 14.955 7.23402C14.955 11.2293 18.1828 14.468 22.1644 14.468Z" fill="#00AAFF"/>
</g>
<defs>
<clipPath id="clip0_3499_8067">
<rect width="108.629" height="30" fill="white"/>
</clipPath>
</defs>
</svg>
